<svg width="168" height="31" viewBox="0 0 168 31" fill="none" xmlns="http://www.w3.org/2000/svg">
<path fill-rule="evenodd" clip-rule="evenodd" d="M63.3739 15.9218C64.1058 15.9218 64.2905 15.4897 63.7823 14.9619L50.0192 0.627745C49.5119 0.0999964 48.6819 0.0999964 48.1753 0.627745L34.4122 14.9619C33.9057 15.4897 34.0895 15.9218 34.8215 15.9218H38.0762C38.8082 15.9218 39.4079 16.5207 39.4079 17.2526V29.4758C39.4079 30.2078 40.0067 30.8074 40.7387 30.8074H57.4575C58.1895 30.8074 58.7891 30.2078 58.7891 29.4758V17.2526C58.7891 16.5207 59.388 15.9218 60.1199 15.9218H63.3739Z" fill="#F0543F"/>
<path fill-rule="evenodd" clip-rule="evenodd" d="M30.1813 16.1598C30.7099 15.6525 30.7099 14.8233 30.1813 14.3159L15.8447 0.551185C15.3161 0.0438598 14.884 0.22849 14.884 0.960476V4.21601C14.884 4.948 14.2852 5.54682 13.5532 5.54682H1.33081C0.598823 5.54682 0 6.14646 0 6.87845V23.5997C0 24.3317 0.598823 24.9306 1.33081 24.9306H13.5532C14.2852 24.9306 14.884 25.5302 14.884 26.2622V29.5136C14.884 30.2456 15.3161 30.4294 15.8447 29.9229L30.1813 16.1598Z" fill="#595757"/>
<path fill-rule="evenodd" clip-rule="evenodd" d="M163.852 2.79641C163.126 2.56277 162.506 2.44594 161.991 2.44594C161.499 2.44594 161.11 2.53581 160.823 2.71554C160.534 2.89526 160.39 3.15914 160.39 3.50634C160.39 3.94994 160.597 4.28898 161.01 4.52263C161.425 4.75627 162.063 4.99891 162.925 5.25053C163.789 5.50296 164.499 5.75458 165.057 6.0062C165.614 6.25782 166.09 6.63525 166.486 7.13849C166.881 7.64255 167.08 8.30755 167.08 9.1343C167.08 9.93818 166.866 10.6301 166.441 11.2118C166.015 11.7935 165.431 12.2338 164.688 12.5328C163.944 12.8326 163.099 12.9829 162.153 12.9829C161.134 12.9829 160.132 12.8032 159.149 12.4429C158.167 12.0835 157.316 11.5925 156.596 10.9683L157.729 8.64903C158.364 9.22498 159.095 9.68656 159.923 10.0338C160.75 10.3818 161.505 10.555 162.188 10.555C162.776 10.555 163.234 10.4471 163.564 10.2315C163.893 10.0158 164.058 9.70453 164.058 9.29687C164.058 8.97336 163.947 8.70622 163.726 8.49626C163.504 8.28712 163.222 8.11556 162.881 7.98404C162.539 7.85169 162.068 7.70219 161.469 7.5339C160.606 7.29453 159.902 7.05517 159.357 6.81498C158.811 6.57562 158.341 6.20962 157.945 5.71864C157.55 5.22684 157.351 4.57328 157.351 3.75796C157.351 3.0031 157.555 2.34056 157.963 1.77114C158.371 1.20173 158.939 0.764664 159.671 0.459125C160.402 0.153586 161.253 0 162.224 0C163.087 0 163.938 0.12581 164.777 0.378247C165.616 0.629867 166.36 0.965633 167.008 1.38473L165.91 3.73999C165.263 3.34459 164.577 3.03006 163.852 2.79641ZM146.383 4.49626C146.731 3.88436 147.204 3.40236 147.804 3.04863C148.402 2.69489 149.05 2.51843 149.746 2.51843C150.441 2.51843 151.079 2.69489 151.66 3.04863C152.242 3.40236 152.704 3.88436 153.045 4.49626C153.387 5.10734 153.557 5.77887 153.557 6.51004C153.557 7.25346 153.387 7.93316 153.045 8.55077C152.704 9.16838 152.242 9.65365 151.66 10.0074C151.079 10.3611 150.441 10.5376 149.746 10.5376C149.05 10.5376 148.406 10.3579 147.813 9.9984C147.22 9.63813 146.746 9.15286 146.392 8.54179C146.038 7.93071 145.862 7.25346 145.862 6.51004C145.862 5.77887 146.035 5.10734 146.383 4.49626ZM155.58 3.21014C154.987 2.22082 154.175 1.44554 153.144 0.881841C152.113 0.318147 150.969 0.0362999 149.71 0.0362999C148.438 0.0362999 147.291 0.318147 146.266 0.881841C145.241 1.44554 144.432 2.22082 143.838 3.21014C143.245 4.19947 142.949 5.29908 142.949 6.5098C142.949 7.73195 143.245 8.8381 143.838 9.82743C144.432 10.8159 145.244 11.5953 146.275 12.1647C147.306 12.7341 148.451 13.0192 149.71 13.0192C150.969 13.0192 152.113 12.7341 153.144 12.1647C154.175 11.5953 154.987 10.8135 155.58 9.81844C156.174 8.8234 156.471 7.72052 156.471 6.5098C156.471 5.29908 156.174 4.19947 155.58 3.21014ZM109.792 6.47343H112.255V11.3645C111.584 11.8555 110.781 12.2542 109.846 12.5597C108.911 12.8661 108.012 13.0188 107.149 13.0188C105.89 13.0188 104.751 12.7337 103.733 12.1643C102.713 11.5957 101.91 10.8155 101.323 9.82701C100.735 8.8385 100.442 7.73235 100.442 6.50938C100.442 5.29866 100.741 4.19905 101.341 3.20973C101.94 2.2204 102.764 1.44512 103.814 0.881423C104.862 0.317729 106.028 0.0366988 107.31 0.0366988C108.246 0.0366988 109.16 0.204173 110.053 0.539939C110.946 0.874888 111.716 1.33074 112.363 1.90669L110.763 3.93763C110.295 3.49484 109.756 3.14682 109.145 2.8952C108.533 2.64358 107.922 2.51777 107.31 2.51777C106.579 2.51777 105.911 2.69505 105.305 3.04797C104.7 3.40171 104.224 3.88126 103.876 4.48662C103.528 5.09197 103.354 5.76596 103.354 6.50938C103.354 7.2528 103.531 7.93332 103.885 8.55012C104.238 9.16773 104.719 9.653 105.323 10.0067C105.929 10.3605 106.597 10.5369 107.328 10.5369C107.7 10.5369 108.102 10.474 108.533 10.3482C108.964 10.2224 109.384 10.0517 109.792 9.83599V6.47343ZM70.9175 0.233756H73.7589V10.3394H79.1532V12.8205H70.9175V0.233756ZM80.1237 0.233756H82.9651V10.3394H88.3594V12.8205H80.1237V0.233756ZM99.273 0.233756H89.6894V12.8205H99.4715V10.4652H92.5307V7.67779H98.59V5.32253H92.5307V2.58902H99.273V0.233756ZM121.407 8.09172H117.434L119.43 3.20065L121.407 8.09172ZM122.325 10.3754L123.313 12.8213H126.352L120.976 0.233756H118.046L112.579 12.8213H115.51L116.498 10.3754H122.325ZM127.305 0.233756H130.47L134.39 7.96535L138.274 0.233756H141.421V12.8205H138.867V4.31605L135.289 11.5444H133.455L129.858 4.31605V12.8205H127.305V0.233756ZM78.3073 26.0732H74.3337L76.3295 21.1822L78.3073 26.0732ZM79.2247 28.3566L80.2133 30.8025H83.2523L77.876 18.215H74.9456L69.4794 30.8025H72.4098L73.3983 28.3566H79.2247ZM87.8915 18.215H98.4097V20.625H94.5627V30.8017H91.7214V20.625H87.8915V18.215ZM105.369 28.5187C104.518 28.5187 103.838 28.2581 103.328 27.7361C102.818 27.2149 102.564 26.505 102.564 25.6055V18.2154H99.7231V25.6055C99.7231 26.7084 99.9502 27.6642 100.406 28.4738C100.862 29.2826 101.515 29.9059 102.366 30.3438C103.217 30.7817 104.212 30.9998 105.351 30.9998C106.49 30.9998 107.479 30.7817 108.318 30.3438C109.157 29.9059 109.801 29.2826 110.251 28.4738C110.7 27.6642 110.925 26.7084 110.925 25.6055V18.2154H108.085V25.6055C108.085 26.5164 107.839 27.2296 107.347 27.7451C106.855 28.2606 106.197 28.5187 105.369 28.5187ZM125.642 20.9393C125.061 20.6461 124.477 20.499 123.889 20.499C123.182 20.499 122.535 20.673 121.947 21.0202C121.36 21.3682 120.898 21.8413 120.563 22.4409C120.227 23.0405 120.059 23.7055 120.059 24.4367C120.059 25.1679 120.227 25.837 120.563 26.4415C120.898 27.0477 121.36 27.5264 121.947 27.8801C122.535 28.2339 123.182 28.4112 123.889 28.4112C124.452 28.4112 125.025 28.2755 125.606 28.0059C126.187 27.7364 126.706 27.3736 127.162 26.9178L128.834 28.7347C128.163 29.4299 127.374 29.9813 126.469 30.3882C125.564 30.7958 124.656 31.0001 123.745 31.0001C122.511 31.0001 121.389 30.7149 120.383 30.1464C119.376 29.5769 118.585 28.7943 118.01 27.7993C117.434 26.8042 117.146 25.6956 117.146 24.4726C117.146 23.2619 117.439 22.1648 118.028 21.182C118.614 20.1992 119.42 19.4264 120.446 18.8627C121.471 18.2998 122.607 18.0179 123.853 18.0179C124.764 18.0179 125.663 18.2067 126.55 18.5841C127.437 18.9615 128.193 19.4746 128.816 20.1216L127.162 22.1533C126.73 21.6378 126.223 21.2334 125.642 20.9393ZM137.788 26.0732H133.815L135.81 21.1822L137.788 26.0732ZM138.706 28.3566L139.694 30.8025H142.733L137.357 18.215H134.426L128.96 30.8025H131.891L132.879 28.3566H138.706ZM150.204 20.7777C149.479 20.544 148.859 20.4272 148.343 20.4272C147.851 20.4272 147.462 20.517 147.175 20.6968C146.887 20.8765 146.743 21.1404 146.743 21.4876C146.743 21.9312 146.949 22.2702 147.363 22.5039C147.777 22.7375 148.415 22.9801 149.278 23.2318C150.141 23.4842 150.851 23.7358 151.409 23.9874C151.966 24.2391 152.443 24.6165 152.839 25.1197C153.233 25.6238 153.432 26.2888 153.432 27.1155C153.432 27.9194 153.219 28.6114 152.793 29.193C152.367 29.7747 151.783 30.215 151.04 30.514C150.296 30.8139 149.452 30.9642 148.505 30.9642C147.486 30.9642 146.485 30.7845 145.502 30.4242C144.519 30.0647 143.669 29.5737 142.949 28.9496L144.081 26.6303C144.717 27.2062 145.448 27.6678 146.275 28.015C147.102 28.363 147.857 28.5362 148.541 28.5362C149.128 28.5362 149.587 28.4284 149.917 28.2127C150.246 27.997 150.411 27.6858 150.411 27.2781C150.411 26.9546 150.3 26.6875 150.078 26.4775C149.856 26.2684 149.574 26.0968 149.234 25.9653C148.891 25.8329 148.421 25.6834 147.821 25.5151C146.958 25.2758 146.254 25.0364 145.709 24.7962C145.164 24.5569 144.693 24.1909 144.298 23.6999C143.902 23.2081 143.704 22.5545 143.704 21.7392C143.704 20.9843 143.907 20.3218 144.316 19.7524C144.723 19.183 145.292 18.7459 146.024 18.4404C146.754 18.1348 147.605 17.9812 148.577 17.9812C149.439 17.9812 150.291 18.107 151.13 18.3595C151.969 18.6111 152.712 18.9469 153.36 19.366L152.263 21.7212C151.616 21.3258 150.93 21.0113 150.204 20.7777ZM162.745 26.0732H158.772L160.768 21.1822L162.745 26.0732ZM163.663 28.3566L164.651 30.8025H167.69L162.314 18.215H159.384L153.917 30.8025H156.848L157.836 28.3566H163.663Z" fill="#33272A"/>
</svg>
